<svg xmlns="http://www.w3.org/2000/svg" viewBox="0 0 102 19" fill="none">
  <path fill="currentColor" d="M21.2276 5.18891C17.5671 5.18891 14.7069 7.96772 14.7069 11.6877C14.7069 15.4077 17.4948 18.1627 21.2276 18.1627C24.9605 18.1627 27.7969 15.3602 27.7969 11.6639C27.7969 7.99149 25.0089 5.18891 21.2276 5.18891ZM21.2523 15.4818C19.1678 15.4818 17.6402 13.8628 17.6402 11.6886C17.6402 9.48973 19.1431 7.87167 21.2276 7.87167C23.3369 7.87167 24.8635 9.51443 24.8635 11.6886C24.8635 13.8628 23.3369 15.4818 21.2523 15.4818ZM28.5963 8.01618H30.4146V17.9222H33.3232V5.43039H28.5963V8.01618ZM7.38668 7.87074C8.91421 7.87074 10.1261 8.81288 10.5862 10.2141H13.6651C13.1071 7.21858 10.6347 5.18891 7.41138 5.18891C3.75083 5.18891 0.890625 7.96772 0.890625 11.6886C0.890625 15.4095 3.67857 18.1637 7.41138 18.1637C10.5624 18.1637 13.0833 16.134 13.6413 13.1137H10.5862C10.1499 14.515 8.93797 15.4818 7.41048 15.4818C5.30122 15.4818 3.82308 13.8628 3.82308 11.6886C3.82401 9.48973 5.27835 7.87074 7.38668 7.87074Z"></path>
</svg>
